<?xml version="1.0" standalone="no"?>
<!DOCTYPE svg PUBLIC "-//W3C//DTD SVG 20010904//EN"
 "http://www.w3.org/TR/2001/REC-SVG-20010904/DTD/svg10.dtd">
<svg version="1.0" xmlns="http://www.w3.org/2000/svg"
 width="260.000000pt" height="260.000000pt" viewBox="0 0 260.000000 260.000000"
 preserveAspectRatio="xMidYMid meet">
<metadata>
Created by potrace 1.11, written by Peter Selinger 2001-2013
</metadata>
<g transform="translate(0.000000,260.000000) scale(0.100000,-0.100000)"
fill="#000000" stroke="none">
<path d="M52 2580 c-18 -11 -37 -32 -42 -46 -7 -17 -9 -462 -8 -1250 l3 -1224
28 -27 27 -28 1216 -3 c668 -1 1230 1 1247 6 19 5 41 21 55 42 l22 33 0 1216
c0 1198 0 1216 -20 1249 -11 18 -32 37 -46 42 -16 6 -474 10 -1237 10 -1194 0
-1212 0 -1245 -20z"/>
</g>
</svg>
