<?xml version="1.0" standalone="no"?>
<!DOCTYPE svg PUBLIC "-//W3C//DTD SVG 20010904//EN"
 "http://www.w3.org/TR/2001/REC-SVG-20010904/DTD/svg10.dtd">
<svg version="1.0" xmlns="http://www.w3.org/2000/svg"
 width="867.000000pt" height="867.000000pt" viewBox="0 0 867.000000 867.000000"
 preserveAspectRatio="xMidYMid meet">
<metadata>
Created by potrace 1.11, written by Peter Selinger 2001-2013
</metadata>
<g transform="translate(0.000000,867.000000) scale(0.100000,-0.100000)"
fill="#000000" stroke="none">
<path d="M220 8650 c-30 -11 -56 -20 -57 -20 -11 0 -90 -82 -109 -112 -58 -91
-54 238 -51 -4198 l2 -4075 28 -56 c32 -66 99 -132 165 -162 l47 -22 4090 0
4090 0 56 28 c66 32 132 99 162 165 l22 47 0 4090 0 4090 -27 55 c-35 72 -86
123 -156 157 l-57 28 -4075 2 c-4030 2 -4076 2 -4130 -17z"/>
</g>
</svg>
